# xmcd CD database file
#
# Track frame offsets:
#	150
#	16688
#	30820
#	42870
#	56732
#	71097
#	85684
#	102063
#	113272
#	129847
#	146808
#	163017
#	180977
#	197327
#	215368
#	232347
#	248817
#	264195
#	282228
#	301321
#	316572
#	333167
#
# Disc length: 4658 seconds
#
# Revision: 0
# Processed by: cddbd v1.5.1PL0 Copyright (c) Steve Scherf et al.
# Submitted via: CDex 1.51
#
DISCID=13123016
DTITLE=Alabama - The Essential Alabama Remaster [CDOne)
DYEAR=2003
DGENRE=Country
TTITLE0=Five O'clock 500
TTITLE1=Keepin' Up
TTITLE2=How Do You Fall In Love
TTITLE3=Tennessee River
TTITLE4=Why Lady Why
TTITLE5=Old Flame
TTITLE6=Feels So Right
TTITLE7=Love In The First Degree
TTITLE8=Mountain Music
TTITLE9=Take Me Down
TTITLE10=Close Enough To Perfect
TTITLE11=Dixieland Delight
TTITLE12=The Closer You Get
TTITLE13=Lady Down On Love
TTITLE14=Roll On (Eighteen Wheeler)
TTITLE15=When We Make Love
TTITLE16=If You're Gonna Play In Texas (You Gotta Have A Fiddle In The Band)
TTITLE17=There's A Fire In The Night
TTITLE18=There's No Way
TTITLE19=Forty Hour Week (For A Livin')
TTITLE20=Can't Keep A Good Man Down
TTITLE21=She And I
EXTD=YEAR: 2003
EXTT0=
EXTT1=
EXTT2=
EXTT3=
EXTT4=
EXTT5=
EXTT6=
EXTT7=
EXTT8=
EXTT9=
EXTT10=
EXTT11=
EXTT12=
EXTT13=
EXTT14=
EXTT15=
EXTT16=
EXTT17=
EXTT18=
EXTT19=
EXTT20=
EXTT21=
PLAYORDER=
